<svg width="32" height="32" viewBox="0 0 32 32" fill="none" xmlns="http://www.w3.org/2000/svg">
<g clip-path="url(#clip0_186_11812)">
<rect width="32" height="32" fill="#00A859"/>
<path d="M15.0322 1.03197C14.467 1.59951 14.0046 2.10073 14.0046 2.14568C14.0046 2.19064 14.3317 2.22743 14.7315 2.22743H15.4584V5.20975L13.9023 6.8684L13.9017 13.3545L16.0114 11.1179L17.0934 12.2083C17.6884 12.808 18.1931 13.2986 18.2147 13.2986C18.2364 13.2986 18.2542 11.8738 18.2542 10.1324V6.96625L16.6885 5.26706V2.23761L18.1128 2.17152L16.0598 0L15.0322 1.03197Z" fill="#FFD600"/>
<path d="M19.1067 14.3331C19.5416 14.779 20.0279 15.2908 20.1873 15.4707L20.4768 15.7974L18.3335 18.0514L24.4607 18.1181L26.0369 16.4298H28.9899L28.9929 17.9396L29.9979 16.9213C30.5506 16.3613 31.0016 15.8581 31 15.803C30.9984 15.748 30.5476 15.2249 29.9983 14.6406L28.9996 13.5782L28.9899 15.0879H26.0071L24.4956 13.5223H18.3157L19.1067 14.3331Z" fill="#FFD600"/>
<path d="M13.8928 24.6826L15.465 26.3662L15.4025 29.3463L14.0336 29.4581L16.0397 31.5828L18.0623 29.4581L16.6885 29.3915V26.2319L18.2542 24.6173L18.2437 18.1632L16.0497 20.4541L13.8928 18.2312V24.6826Z" fill="#FFD600"/>
<path d="M6.04365 15.0879H3.15709V14.3517C3.15709 13.9468 3.11941 13.6322 3.07322 13.6528C3.02704 13.6732 2.5418 14.1536 1.99473 14.7203L1 15.7505L3.10118 18.0309L3.16693 16.4298H6.02688L7.65344 18.1073H13.832L12.9352 17.1847C11.4292 15.6353 11.4625 15.9422 12.6601 14.6434L13.6937 13.5223H7.55514L6.04365 15.0879Z" fill="#FFD600"/>
</g>
<defs>
<clipPath id="clip0_186_11812">
<rect width="32" height="32" rx="8" fill="white"/>
</clipPath>
</defs>
</svg>
