<svg width="126" height="32" viewBox="0 0 126 32" fill="none" xmlns="http://www.w3.org/2000/svg">
<path fill-rule="evenodd" clip-rule="evenodd" d="M16.6023 32C25.4389 32 32.6023 24.8366 32.6023 16C32.6023 7.16344 25.4389 0 16.6023 0C7.76574 0 0.602295 7.16344 0.602295 16C0.602295 24.8366 7.76574 32 16.6023 32ZM24.12 16.4092C23.8331 16.6961 23.4777 16.8395 23.0536 16.8395C22.6296 16.8395 22.2741 16.6961 21.9872 16.4092C21.7004 16.1224 21.557 15.7669 21.557 15.3429V14.9687L21.2202 15.1558C20.871 15.3554 20.4906 15.4052 20.079 15.3055C19.6674 15.2057 19.3619 14.9687 19.1623 14.5946C18.9628 14.2453 18.9191 13.8774 19.0314 13.4908C19.1436 13.1041 19.3743 12.7986 19.7236 12.5741L20.0603 12.3496L19.7236 12.1999C19.3245 12.0253 19.0813 11.726 18.9939 11.3019C18.9066 10.8779 18.9628 10.4913 19.1623 10.142C19.3868 9.79282 19.6986 9.56208 20.0977 9.44984C20.4968 9.33759 20.871 9.38124 21.2202 9.58079L21.557 9.76787V9.3563C21.557 8.93225 21.7004 8.57679 21.9872 8.28994C22.2741 8.00308 22.6296 7.85965 23.0536 7.85965C23.4777 7.85965 23.8331 8.00308 24.12 8.28994C24.4068 8.57679 24.5502 8.93225 24.5502 9.3563V9.76787L24.9244 9.58079C25.2986 9.38124 25.679 9.33135 26.0656 9.43113C26.4522 9.53091 26.7453 9.7554 26.9449 10.1046C27.1444 10.4788 27.2006 10.8654 27.1133 11.2645C27.0259 11.6636 26.7952 11.963 26.4211 12.1625L26.0469 12.3496L26.4211 12.5367C26.7952 12.7362 27.0322 13.0418 27.132 13.4534C27.2317 13.8649 27.1694 14.2453 26.9449 14.5946C26.7453 14.9438 26.4522 15.1745 26.0656 15.2868C25.679 15.399 25.2986 15.3554 24.9244 15.1558L24.5502 14.9687V15.3429C24.5502 15.7669 24.4068 16.1224 24.12 16.4092ZM17.5534 22.9009C16.6804 23.8488 15.5704 24.3228 14.2234 24.3228C13.1009 24.3228 12.0533 23.9673 11.0804 23.2564C10.1076 22.5455 9.25951 21.6662 8.53613 20.6186C7.81275 19.5709 7.24527 18.4484 6.8337 17.2511C6.42212 16.0538 6.21633 14.9687 6.21633 13.9959C6.21633 12.7736 6.68403 11.6948 7.61944 10.7594C8.55484 9.824 9.63367 9.3563 10.8559 9.3563C11.9036 9.3563 12.8452 9.68057 13.6809 10.3291C14.5165 10.9777 15.059 11.8507 15.3085 12.9482C15.4831 13.6716 15.745 14.3326 16.0942 14.9313C16.4434 15.53 16.8924 16.0787 17.4412 16.5776C17.9401 17.0266 18.3017 17.5193 18.5262 18.0556C18.7507 18.5919 18.863 19.1344 18.863 19.6832C18.863 20.8805 18.4265 21.9531 17.5534 22.9009ZM14.2234 21.3295C13.5499 21.3295 12.9138 21.0488 12.3152 20.4876C11.7165 19.9264 11.1864 19.2591 10.725 18.4858C10.2635 17.7126 9.89559 16.9081 9.6212 16.0725C9.34682 15.2369 9.20962 14.5447 9.20962 13.9959C9.20962 13.5718 9.378 13.1915 9.71474 12.8547C10.0515 12.518 10.4319 12.3496 10.8559 12.3496C11.1553 12.3496 11.4608 12.4556 11.7726 12.6676C12.0844 12.8797 12.3027 13.1977 12.4274 13.6217C12.7018 14.6694 13.0697 15.611 13.5312 16.4467C13.9927 17.2823 14.6225 18.0618 15.4207 18.7852C15.5704 18.9099 15.6826 19.0596 15.7575 19.2342C15.8323 19.4088 15.8697 19.5834 15.8697 19.758C15.8697 20.1571 15.72 20.5188 15.4207 20.8431C15.1214 21.1673 14.7223 21.3295 14.2234 21.3295Z" fill="white"/>
<path d="M117.884 26.5408C116.444 26.5408 115.167 26.2336 114.054 25.6192C112.94 25.0048 112.067 24.1408 111.433 23.0272C110.799 21.9136 110.483 20.6272 110.483 19.168C110.483 17.6896 110.79 16.3744 111.404 15.2224C112.038 14.0704 112.902 13.1776 113.996 12.544C115.11 11.8912 116.415 11.5648 117.913 11.5648C119.315 11.5648 120.553 11.872 121.628 12.4864C122.703 13.1008 123.539 13.9456 124.134 15.0208C124.748 16.0768 125.055 17.2576 125.055 18.5632C125.055 18.7744 125.046 18.9952 125.027 19.2256C125.027 19.456 125.017 19.696 124.998 19.9456H114.14C114.217 21.0592 114.601 21.9328 115.292 22.5664C116.003 23.2 116.857 23.5168 117.855 23.5168C118.604 23.5168 119.228 23.3536 119.727 23.0272C120.246 22.6816 120.63 22.24 120.879 21.7024H124.623C124.355 22.6048 123.903 23.4304 123.27 24.1792C122.655 24.9088 121.887 25.4848 120.966 25.9072C120.063 26.3296 119.036 26.5408 117.884 26.5408ZM117.913 14.56C117.011 14.56 116.214 14.8192 115.523 15.3376C114.831 15.8368 114.39 16.6048 114.198 17.6416H121.311C121.254 16.7008 120.908 15.952 120.275 15.3952C119.641 14.8384 118.854 14.56 117.913 14.56ZM113.651 10.5568V7.9072L117.855 5.6032L122.06 7.9072V10.5568L117.855 8.1952L113.651 10.5568Z" fill="white"/>
<path d="M100.686 26.5408C99.4575 26.5408 98.4495 26.3488 97.6623 25.9648C96.8751 25.5616 96.2895 25.0336 95.9055 24.3808C95.5215 23.728 95.3295 23.008 95.3295 22.2208C95.3295 20.896 95.8479 19.8208 96.8847 18.9952C97.9215 18.1696 99.4767 17.7568 101.55 17.7568H105.179V17.4112C105.179 16.432 104.901 15.712 104.344 15.2512C103.787 14.7904 103.096 14.56 102.27 14.56C101.522 14.56 100.869 14.7424 100.312 15.1072C99.7551 15.4528 99.4095 15.9712 99.2751 16.6624H95.6751C95.7711 15.6256 96.1167 14.7232 96.7119 13.9552C97.3263 13.1872 98.1135 12.6016 99.0735 12.1984C100.033 11.776 101.109 11.5648 102.299 11.5648C104.334 11.5648 105.938 12.0736 107.109 13.0912C108.28 14.1088 108.865 15.5488 108.865 17.4112V26.1952H105.726L105.381 23.8912C104.958 24.6592 104.363 25.2928 103.595 25.792C102.846 26.2912 101.877 26.5408 100.686 26.5408ZM101.521 23.6608C102.577 23.6608 103.393 23.3152 103.969 22.624C104.565 21.9328 104.939 21.0784 105.093 20.0608H101.954C100.974 20.0608 100.273 20.2432 99.8511 20.608C99.4287 20.9536 99.2175 21.3856 99.2175 21.904C99.2175 22.4608 99.4287 22.8928 99.8511 23.2C100.273 23.5072 100.83 23.6608 101.521 23.6608Z" fill="white"/>
<path d="M84.9804 26.5408C83.6364 26.5408 82.4364 26.2144 81.3804 25.5616C80.3244 24.9088 79.4892 24.016 78.8748 22.8832C78.2604 21.7504 77.9532 20.464 77.9532 19.024C77.9532 17.584 78.2604 16.3072 78.8748 15.1936C79.4892 14.0608 80.3244 13.1776 81.3804 12.544C82.4364 11.8912 83.6364 11.5648 84.9804 11.5648C86.0556 11.5648 86.9964 11.7664 87.8028 12.1696C88.6092 12.5728 89.262 13.1392 89.7612 13.8688V5.4592H93.4476V26.1952H90.1644L89.7612 24.1504C89.3004 24.784 88.686 25.3408 87.918 25.8208C87.1692 26.3008 86.19 26.5408 84.9804 26.5408ZM85.758 23.3152C86.9484 23.3152 87.918 22.9216 88.6668 22.1344C89.4348 21.328 89.8188 20.3008 89.8188 19.0528C89.8188 17.8048 89.4348 16.7872 88.6668 16C87.918 15.1936 86.9484 14.7904 85.758 14.7904C84.5868 14.7904 83.6172 15.184 82.8492 15.9712C82.0812 16.7584 81.6972 17.776 81.6972 19.024C81.6972 20.272 82.0812 21.2992 82.8492 22.1056C83.6172 22.912 84.5868 23.3152 85.758 23.3152Z" fill="white"/>
<path d="M74.1631 9.6928C73.4911 9.6928 72.9343 9.4912 72.4927 9.088C72.0703 8.6848 71.8591 8.176 71.8591 7.5616C71.8591 6.9472 72.0703 6.448 72.4927 6.064C72.9343 5.6608 73.4911 5.4592 74.1631 5.4592C74.8351 5.4592 75.3823 5.6608 75.8047 6.064C76.2463 6.448 76.4671 6.9472 76.4671 7.5616C76.4671 8.176 76.2463 8.6848 75.8047 9.088C75.3823 9.4912 74.8351 9.6928 74.1631 9.6928ZM72.3199 26.1952V11.9104H76.0063V26.1952H72.3199Z" fill="white"/>
<path d="M61.4508 26.5408C59.6652 26.5408 58.2828 25.984 57.3036 24.8704C56.3436 23.7568 55.8636 22.1248 55.8636 19.9744V11.9104H59.5212V19.6288C59.5212 20.8576 59.7708 21.7984 60.27 22.4512C60.7692 23.104 61.5564 23.4304 62.6316 23.4304C63.6492 23.4304 64.4844 23.0656 65.1372 22.336C65.8092 21.6064 66.1452 20.5888 66.1452 19.2832V11.9104H69.8316V26.1952H66.5772L66.2892 23.776C65.8476 24.6208 65.2044 25.2928 64.3596 25.792C63.534 26.2912 62.5644 26.5408 61.4508 26.5408Z" fill="white"/>
<path d="M47.2636 26.5408C45.8044 26.5408 44.518 26.224 43.4044 25.5904C42.2908 24.9568 41.4076 24.0736 40.7548 22.9408C40.1212 21.808 39.8044 20.512 39.8044 19.0528C39.8044 17.5936 40.1212 16.2976 40.7548 15.1648C41.4076 14.032 42.2908 13.1488 43.4044 12.5152C44.518 11.8816 45.8044 11.5648 47.2636 11.5648C49.0876 11.5648 50.6236 12.0448 51.8716 13.0048C53.1196 13.9456 53.9164 15.2512 54.262 16.9216H50.374C50.182 16.2304 49.798 15.6928 49.222 15.3088C48.6652 14.9056 48.0028 14.704 47.2348 14.704C46.2172 14.704 45.3532 15.088 44.6428 15.856C43.9324 16.624 43.5772 17.6896 43.5772 19.0528C43.5772 20.416 43.9324 21.4816 44.6428 22.2496C45.3532 23.0176 46.2172 23.4016 47.2348 23.4016C48.0028 23.4016 48.6652 23.2096 49.222 22.8256C49.798 22.4416 50.182 21.8944 50.374 21.184H54.262C53.9164 22.7968 53.1196 24.0928 51.8716 25.072C50.6236 26.0512 49.0876 26.5408 47.2636 26.5408Z" fill="white"/>
</svg>
