<svg width="360" height="258" viewBox="0 0 360 258" fill="none" xmlns="http://www.w3.org/2000/svg">
<path opacity="0.2" d="M0 0.857117V52.2857H51.4286V0.857117H0ZM46.2857 26.5714H36V36.8571H46.2857V47.1428H36V36.8571H25.7143V47.1428H15.4286V36.8571H5.14286V26.5714H15.4286V16.2857H5.14286V5.99997H15.4286V16.2857H25.7143V5.99997H36V16.2857H46.2857V26.5714ZM36 16.2857V26.5714H25.7143V16.2857H36ZM25.7143 26.5714V36.8571H15.4286V26.5714H25.7143Z" fill="white"/>
<path opacity="0.1" d="M51.4287 0.857117V52.2857H102.857V0.857117H51.4287ZM97.7144 26.5714H87.4287V36.8571H97.7144V47.1428H87.4287V36.8571H77.143V47.1428H66.8573V36.8571H56.5716V26.5714H66.8573V16.2857H56.5716V5.99997H66.8573V16.2857H77.143V5.99997H87.4287V16.2857H97.7144V26.5714ZM87.4287 16.2857V26.5714H77.143V16.2857H87.4287ZM77.143 26.5714V36.8571H66.8573V26.5714H77.143Z" fill="white"/>
<path opacity="0.2" d="M102.857 0.857117V52.2857H154.286V0.857117H102.857ZM149.143 26.5714H138.857V36.8571H149.143V47.1428H138.857V36.8571H128.571V47.1428H118.286V36.8571H108V26.5714H118.286V16.2857H108V5.99997H118.286V16.2857H128.571V5.99997H138.857V16.2857H149.143V26.5714ZM138.857 16.2857V26.5714H128.571V16.2857H138.857ZM128.571 26.5714V36.8571H118.286V26.5714H128.571Z" fill="white"/>
<path opacity="0.1" d="M154.286 0.857117V52.2857H205.714V0.857117H154.286ZM200.571 26.5714H190.286V36.8571H200.571V47.1428H190.286V36.8571H180V47.1428H169.714V36.8571H159.429V26.5714H169.714V16.2857H159.429V5.99997H169.714V16.2857H180V5.99997H190.286V16.2857H200.571V26.5714ZM190.286 16.2857V26.5714H180V16.2857H190.286ZM180 26.5714V36.8571H169.714V26.5714H180Z" fill="white"/>
<path opacity="0.2" d="M205.714 0.857117V52.2857H257.143V0.857117H205.714ZM252 26.5714H241.714V36.8571H252V47.1428H241.714V36.8571H231.429V47.1428H221.143V36.8571H210.857V26.5714H221.143V16.2857H210.857V5.99997H221.143V16.2857H231.429V5.99997H241.714V16.2857H252V26.5714ZM241.714 16.2857V26.5714H231.429V16.2857H241.714ZM231.429 26.5714V36.8571H221.143V26.5714H231.429Z" fill="white"/>
<path opacity="0.1" d="M257.143 0.857117V52.2857H308.571V0.857117H257.143ZM303.429 26.5714H293.143V36.8571H303.429V47.1428H293.143V36.8571H282.857V47.1428H272.571V36.8571H262.286V26.5714H272.571V16.2857H262.286V5.99997H272.571V16.2857H282.857V5.99997H293.143V16.2857H303.429V26.5714ZM293.143 16.2857V26.5714H282.857V16.2857H293.143ZM282.857 26.5714V36.8571H272.571V26.5714H282.857Z" fill="white"/>
<path opacity="0.2" d="M308.571 0.857117V52.2857H360V0.857117H308.571ZM354.857 26.5714H344.571V36.8571H354.857V47.1428H344.571V36.8571H334.286V47.1428H324V36.8571H313.714V26.5714H324V16.2857H313.714V5.99997H324V16.2857H334.286V5.99997H344.571V16.2857H354.857V26.5714ZM344.571 16.2857V26.5714H334.286V16.2857H344.571ZM334.286 26.5714V36.8571H324V26.5714H334.286Z" fill="white"/>
<path opacity="0.1" d="M0 52.2857V103.714H51.4286V52.2857H0ZM46.2857 78H36V88.2857H46.2857V98.5714H36V88.2857H25.7143V98.5714H15.4286V88.2857H5.14286V78H15.4286V67.7143H5.14286V57.4285H15.4286V67.7143H25.7143V57.4285H36V67.7143H46.2857V78ZM36 67.7143V78H25.7143V67.7143H36ZM25.7143 78V88.2857H15.4286V78H25.7143Z" fill="white"/>
<path opacity="0.2" d="M51.4287 52.2857V103.714H102.857V52.2857H51.4287ZM97.7144 78H87.4287V88.2857H97.7144V98.5714H87.4287V88.2857H77.143V98.5714H66.8573V88.2857H56.5716V78H66.8573V67.7143H56.5716V57.4285H66.8573V67.7143H77.143V57.4285H87.4287V67.7143H97.7144V78ZM87.4287 67.7143V78H77.143V67.7143H87.4287ZM77.143 78V88.2857H66.8573V78H77.143Z" fill="white"/>
<path opacity="0.1" d="M102.857 52.2857V103.714H154.286V52.2857H102.857ZM149.143 78H138.857V88.2857H149.143V98.5714H138.857V88.2857H128.571V98.5714H118.286V88.2857H108V78H118.286V67.7143H108V57.4285H118.286V67.7143H128.571V57.4285H138.857V67.7143H149.143V78ZM138.857 67.7143V78H128.571V67.7143H138.857ZM128.571 78V88.2857H118.286V78H128.571Z" fill="white"/>
<path opacity="0.2" d="M154.286 52.2857V103.714H205.714V52.2857H154.286ZM200.571 78H190.286V88.2857H200.571V98.5714H190.286V88.2857H180V98.5714H169.714V88.2857H159.429V78H169.714V67.7143H159.429V57.4285H169.714V67.7143H180V57.4285H190.286V67.7143H200.571V78ZM190.286 67.7143V78H180V67.7143H190.286ZM180 78V88.2857H169.714V78H180Z" fill="white"/>
<path opacity="0.1" d="M205.714 52.2857V103.714H257.143V52.2857H205.714ZM252 78H241.714V88.2857H252V98.5714H241.714V88.2857H231.429V98.5714H221.143V88.2857H210.857V78H221.143V67.7143H210.857V57.4285H221.143V67.7143H231.429V57.4285H241.714V67.7143H252V78ZM241.714 67.7143V78H231.429V67.7143H241.714ZM231.429 78V88.2857H221.143V78H231.429Z" fill="white"/>
<path opacity="0.2" d="M257.143 52.2857V103.714H308.571V52.2857H257.143ZM303.429 78H293.143V88.2857H303.429V98.5714H293.143V88.2857H282.857V98.5714H272.571V88.2857H262.286V78H272.571V67.7143H262.286V57.4285H272.571V67.7143H282.857V57.4285H293.143V67.7143H303.429V78ZM293.143 67.7143V78H282.857V67.7143H293.143ZM282.857 78V88.2857H272.571V78H282.857Z" fill="white"/>
<path opacity="0.1" d="M308.571 52.2857V103.714H360V52.2857H308.571ZM354.857 78H344.571V88.2857H354.857V98.5714H344.571V88.2857H334.286V98.5714H324V88.2857H313.714V78H324V67.7143H313.714V57.4285H324V67.7143H334.286V57.4285H344.571V67.7143H354.857V78ZM344.571 67.7143V78H334.286V67.7143H344.571ZM334.286 78V88.2857H324V78H334.286Z" fill="white"/>
<path opacity="0.2" d="M0 103.714V155.143H51.4286V103.714H0ZM46.2857 129.429H36V139.714H46.2857V150H36V139.714H25.7143V150H15.4286V139.714H5.14286V129.429H15.4286V119.143H5.14286V108.857H15.4286V119.143H25.7143V108.857H36V119.143H46.2857V129.429ZM36 119.143V129.429H25.7143V119.143H36ZM25.7143 129.429V139.714H15.4286V129.429H25.7143Z" fill="white"/>
<path opacity="0.1" d="M51.4287 103.714V155.143H102.857V103.714H51.4287ZM97.7144 129.429H87.4287V139.714H97.7144V150H87.4287V139.714H77.143V150H66.8573V139.714H56.5716V129.429H66.8573V119.143H56.5716V108.857H66.8573V119.143H77.143V108.857H87.4287V119.143H97.7144V129.429ZM87.4287 119.143V129.429H77.143V119.143H87.4287ZM77.143 129.429V139.714H66.8573V129.429H77.143Z" fill="white"/>
<path opacity="0.2" d="M102.857 103.714V155.143H154.286V103.714H102.857ZM149.143 129.429H138.857V139.714H149.143V150H138.857V139.714H128.571V150H118.286V139.714H108V129.429H118.286V119.143H108V108.857H118.286V119.143H128.571V108.857H138.857V119.143H149.143V129.429ZM138.857 119.143V129.429H128.571V119.143H138.857ZM128.571 129.429V139.714H118.286V129.429H128.571Z" fill="white"/>
<path opacity="0.1" d="M154.286 103.714V155.143H205.714V103.714H154.286ZM200.571 129.429H190.286V139.714H200.571V150H190.286V139.714H180V150H169.714V139.714H159.429V129.429H169.714V119.143H159.429V108.857H169.714V119.143H180V108.857H190.286V119.143H200.571V129.429ZM190.286 119.143V129.429H180V119.143H190.286ZM180 129.429V139.714H169.714V129.429H180Z" fill="white"/>
<path opacity="0.2" d="M205.714 103.714V155.143H257.143V103.714H205.714ZM252 129.429H241.714V139.714H252V150H241.714V139.714H231.429V150H221.143V139.714H210.857V129.429H221.143V119.143H210.857V108.857H221.143V119.143H231.429V108.857H241.714V119.143H252V129.429ZM241.714 119.143V129.429H231.429V119.143H241.714ZM231.429 129.429V139.714H221.143V129.429H231.429Z" fill="white"/>
<path opacity="0.1" d="M257.143 103.714V155.143H308.571V103.714H257.143ZM303.429 129.429H293.143V139.714H303.429V150H293.143V139.714H282.857V150H272.571V139.714H262.286V129.429H272.571V119.143H262.286V108.857H272.571V119.143H282.857V108.857H293.143V119.143H303.429V129.429ZM293.143 119.143V129.429H282.857V119.143H293.143ZM282.857 129.429V139.714H272.571V129.429H282.857Z" fill="white"/>
<path opacity="0.2" d="M308.571 103.714V155.143H360V103.714H308.571ZM354.857 129.429H344.571V139.714H354.857V150H344.571V139.714H334.286V150H324V139.714H313.714V129.429H324V119.143H313.714V108.857H324V119.143H334.286V108.857H344.571V119.143H354.857V129.429ZM344.571 119.143V129.429H334.286V119.143H344.571ZM334.286 129.429V139.714H324V129.429H334.286Z" fill="white"/>
<path opacity="0.1" d="M0 155.143V206.571H51.4286V155.143H0ZM46.2857 180.857H36V191.143H46.2857V201.429H36V191.143H25.7143V201.429H15.4286V191.143H5.14286V180.857H15.4286V170.571H5.14286V160.286H15.4286V170.571H25.7143V160.286H36V170.571H46.2857V180.857ZM36 170.571V180.857H25.7143V170.571H36ZM25.7143 180.857V191.143H15.4286V180.857H25.7143Z" fill="white"/>
<path opacity="0.2" d="M51.4287 155.143V206.571H102.857V155.143H51.4287ZM97.7144 180.857H87.4287V191.143H97.7144V201.429H87.4287V191.143H77.143V201.429H66.8573V191.143H56.5716V180.857H66.8573V170.571H56.5716V160.286H66.8573V170.571H77.143V160.286H87.4287V170.571H97.7144V180.857ZM87.4287 170.571V180.857H77.143V170.571H87.4287ZM77.143 180.857V191.143H66.8573V180.857H77.143Z" fill="white"/>
<path opacity="0.1" d="M102.857 155.143V206.571H154.286V155.143H102.857ZM149.143 180.857H138.857V191.143H149.143V201.429H138.857V191.143H128.571V201.429H118.286V191.143H108V180.857H118.286V170.571H108V160.286H118.286V170.571H128.571V160.286H138.857V170.571H149.143V180.857ZM138.857 170.571V180.857H128.571V170.571H138.857ZM128.571 180.857V191.143H118.286V180.857H128.571Z" fill="white"/>
<path opacity="0.2" d="M154.286 155.143V206.571H205.714V155.143H154.286ZM200.571 180.857H190.286V191.143H200.571V201.429H190.286V191.143H180V201.429H169.714V191.143H159.429V180.857H169.714V170.571H159.429V160.286H169.714V170.571H180V160.286H190.286V170.571H200.571V180.857ZM190.286 170.571V180.857H180V170.571H190.286ZM180 180.857V191.143H169.714V180.857H180Z" fill="white"/>
<path opacity="0.1" d="M205.714 155.143V206.571H257.143V155.143H205.714ZM252 180.857H241.714V191.143H252V201.429H241.714V191.143H231.429V201.429H221.143V191.143H210.857V180.857H221.143V170.571H210.857V160.286H221.143V170.571H231.429V160.286H241.714V170.571H252V180.857ZM241.714 170.571V180.857H231.429V170.571H241.714ZM231.429 180.857V191.143H221.143V180.857H231.429Z" fill="white"/>
<path opacity="0.2" d="M257.143 155.143V206.571H308.571V155.143H257.143ZM303.429 180.857H293.143V191.143H303.429V201.429H293.143V191.143H282.857V201.429H272.571V191.143H262.286V180.857H272.571V170.571H262.286V160.286H272.571V170.571H282.857V160.286H293.143V170.571H303.429V180.857ZM293.143 170.571V180.857H282.857V170.571H293.143ZM282.857 180.857V191.143H272.571V180.857H282.857Z" fill="white"/>
<path opacity="0.1" d="M308.571 155.143V206.571H360V155.143H308.571ZM354.857 180.857H344.571V191.143H354.857V201.429H344.571V191.143H334.286V201.429H324V191.143H313.714V180.857H324V170.571H313.714V160.286H324V170.571H334.286V160.286H344.571V170.571H354.857V180.857ZM344.571 170.571V180.857H334.286V170.571H344.571ZM334.286 180.857V191.143H324V180.857H334.286Z" fill="white"/>
<path opacity="0.2" d="M0 206.571V258H51.4286V206.571H0ZM46.2857 232.286H36V242.571H46.2857V252.857H36V242.571H25.7143V252.857H15.4286V242.571H5.14286V232.286H15.4286V222H5.14286V211.714H15.4286V222H25.7143V211.714H36V222H46.2857V232.286ZM36 222V232.286H25.7143V222H36ZM25.7143 232.286V242.571H15.4286V232.286H25.7143Z" fill="white"/>
<path opacity="0.1" d="M51.4287 206.571V258H102.857V206.571H51.4287ZM97.7144 232.286H87.4287V242.571H97.7144V252.857H87.4287V242.571H77.143V252.857H66.8573V242.571H56.5716V232.286H66.8573V222H56.5716V211.714H66.8573V222H77.143V211.714H87.4287V222H97.7144V232.286ZM87.4287 222V232.286H77.143V222H87.4287ZM77.143 232.286V242.571H66.8573V232.286H77.143Z" fill="white"/>
<path opacity="0.2" d="M102.857 206.571V258H154.286V206.571H102.857ZM149.143 232.286H138.857V242.571H149.143V252.857H138.857V242.571H128.571V252.857H118.286V242.571H108V232.286H118.286V222H108V211.714H118.286V222H128.571V211.714H138.857V222H149.143V232.286ZM138.857 222V232.286H128.571V222H138.857ZM128.571 232.286V242.571H118.286V232.286H128.571Z" fill="white"/>
<path opacity="0.1" d="M154.286 206.571V258H205.714V206.571H154.286ZM200.571 232.286H190.286V242.571H200.571V252.857H190.286V242.571H180V252.857H169.714V242.571H159.429V232.286H169.714V222H159.429V211.714H169.714V222H180V211.714H190.286V222H200.571V232.286ZM190.286 222V232.286H180V222H190.286ZM180 232.286V242.571H169.714V232.286H180Z" fill="white"/>
<path opacity="0.2" d="M205.714 206.571V258H257.143V206.571H205.714ZM252 232.286H241.714V242.571H252V252.857H241.714V242.571H231.429V252.857H221.143V242.571H210.857V232.286H221.143V222H210.857V211.714H221.143V222H231.429V211.714H241.714V222H252V232.286ZM241.714 222V232.286H231.429V222H241.714ZM231.429 232.286V242.571H221.143V232.286H231.429Z" fill="white"/>
<path opacity="0.1" d="M257.143 206.571V258H308.571V206.571H257.143ZM303.429 232.286H293.143V242.571H303.429V252.857H293.143V242.571H282.857V252.857H272.571V242.571H262.286V232.286H272.571V222H262.286V211.714H272.571V222H282.857V211.714H293.143V222H303.429V232.286ZM293.143 222V232.286H282.857V222H293.143ZM282.857 232.286V242.571H272.571V232.286H282.857Z" fill="white"/>
<path opacity="0.2" d="M308.571 206.571V258H360V206.571H308.571ZM354.857 232.286H344.571V242.571H354.857V252.857H344.571V242.571H334.286V252.857H324V242.571H313.714V232.286H324V222H313.714V211.714H324V222H334.286V211.714H344.571V222H354.857V232.286ZM344.571 222V232.286H334.286V222H344.571ZM334.286 232.286V242.571H324V232.286H334.286Z" fill="white"/>
</svg>
