<svg width="360" height="258" viewBox="0 0 360 258" fill="none" xmlns="http://www.w3.org/2000/svg">
<path opacity="0.2" d="M0 0V51.4286H51.4286V0H0ZM46.2857 25.7143H36V36H46.2857V46.2857H36V36H25.7143V46.2857H15.4286V36H5.14286V25.7143H15.4286V15.4286H5.14286V5.14286H15.4286V15.4286H25.7143V5.14286H36V15.4286H46.2857V25.7143ZM36 15.4286V25.7143H25.7143V15.4286H36ZM25.7143 25.7143V36H15.4286V25.7143H25.7143Z" fill="white"/>
<path opacity="0.1" d="M51.4286 0V51.4286H102.857V0H51.4286ZM97.7143 25.7143H87.4286V36H97.7143V46.2857H87.4286V36H77.1429V46.2857H66.8572V36H56.5714V25.7143H66.8572V15.4286H56.5714V5.14286H66.8572V15.4286H77.1429V5.14286H87.4286V15.4286H97.7143V25.7143ZM87.4286 15.4286V25.7143H77.1429V15.4286H87.4286ZM77.1429 25.7143V36H66.8572V25.7143H77.1429Z" fill="white"/>
<path opacity="0.2" d="M102.857 0V51.4286H154.286V0H102.857ZM149.143 25.7143H138.857V36H149.143V46.2857H138.857V36H128.571V46.2857H118.286V36H108V25.7143H118.286V15.4286H108V5.14286H118.286V15.4286H128.571V5.14286H138.857V15.4286H149.143V25.7143ZM138.857 15.4286V25.7143H128.571V15.4286H138.857ZM128.571 25.7143V36H118.286V25.7143H128.571Z" fill="white"/>
<path opacity="0.1" d="M154.286 0V51.4286H205.714V0H154.286ZM200.571 25.7143H190.286V36H200.571V46.2857H190.286V36H180V46.2857H169.714V36H159.429V25.7143H169.714V15.4286H159.429V5.14286H169.714V15.4286H180V5.14286H190.286V15.4286H200.571V25.7143ZM190.286 15.4286V25.7143H180V15.4286H190.286ZM180 25.7143V36H169.714V25.7143H180Z" fill="white"/>
<path opacity="0.2" d="M205.714 0V51.4286H257.143V0H205.714ZM252 25.7143H241.714V36H252V46.2857H241.714V36H231.429V46.2857H221.143V36H210.857V25.7143H221.143V15.4286H210.857V5.14286H221.143V15.4286H231.429V5.14286H241.714V15.4286H252V25.7143ZM241.714 15.4286V25.7143H231.429V15.4286H241.714ZM231.429 25.7143V36H221.143V25.7143H231.429Z" fill="white"/>
<path opacity="0.1" d="M257.143 0V51.4286H308.571V0H257.143ZM303.429 25.7143H293.143V36H303.429V46.2857H293.143V36H282.857V46.2857H272.571V36H262.286V25.7143H272.571V15.4286H262.286V5.14286H272.571V15.4286H282.857V5.14286H293.143V15.4286H303.429V25.7143ZM293.143 15.4286V25.7143H282.857V15.4286H293.143ZM282.857 25.7143V36H272.571V25.7143H282.857Z" fill="white"/>
<path opacity="0.2" d="M308.571 0V51.4286H360V0H308.571ZM354.857 25.7143H344.571V36H354.857V46.2857H344.571V36H334.286V46.2857H324V36H313.714V25.7143H324V15.4286H313.714V5.14286H324V15.4286H334.286V5.14286H344.571V15.4286H354.857V25.7143ZM344.571 15.4286V25.7143H334.286V15.4286H344.571ZM334.286 25.7143V36H324V25.7143H334.286Z" fill="white"/>
<path opacity="0.1" d="M0 51.4286V102.857H51.4286V51.4286H0ZM46.2857 77.1429H36V87.4286H46.2857V97.7143H36V87.4286H25.7143V97.7143H15.4286V87.4286H5.14286V77.1429H15.4286V66.8571H5.14286V56.5714H15.4286V66.8571H25.7143V56.5714H36V66.8571H46.2857V77.1429ZM36 66.8571V77.1429H25.7143V66.8571H36ZM25.7143 77.1429V87.4286H15.4286V77.1429H25.7143Z" fill="white"/>
<path opacity="0.2" d="M51.4286 51.4286V102.857H102.857V51.4286H51.4286ZM97.7143 77.1429H87.4286V87.4286H97.7143V97.7143H87.4286V87.4286H77.1429V97.7143H66.8572V87.4286H56.5714V77.1429H66.8572V66.8571H56.5714V56.5714H66.8572V66.8571H77.1429V56.5714H87.4286V66.8571H97.7143V77.1429ZM87.4286 66.8571V77.1429H77.1429V66.8571H87.4286ZM77.1429 77.1429V87.4286H66.8572V77.1429H77.1429Z" fill="white"/>
<path opacity="0.1" d="M102.857 51.4286V102.857H154.286V51.4286H102.857ZM149.143 77.1429H138.857V87.4286H149.143V97.7143H138.857V87.4286H128.571V97.7143H118.286V87.4286H108V77.1429H118.286V66.8571H108V56.5714H118.286V66.8571H128.571V56.5714H138.857V66.8571H149.143V77.1429ZM138.857 66.8571V77.1429H128.571V66.8571H138.857ZM128.571 77.1429V87.4286H118.286V77.1429H128.571Z" fill="white"/>
<path opacity="0.2" d="M154.286 51.4286V102.857H205.714V51.4286H154.286ZM200.571 77.1429H190.286V87.4286H200.571V97.7143H190.286V87.4286H180V97.7143H169.714V87.4286H159.429V77.1429H169.714V66.8571H159.429V56.5714H169.714V66.8571H180V56.5714H190.286V66.8571H200.571V77.1429ZM190.286 66.8571V77.1429H180V66.8571H190.286ZM180 77.1429V87.4286H169.714V77.1429H180Z" fill="white"/>
<path opacity="0.1" d="M205.714 51.4286V102.857H257.143V51.4286H205.714ZM252 77.1429H241.714V87.4286H252V97.7143H241.714V87.4286H231.429V97.7143H221.143V87.4286H210.857V77.1429H221.143V66.8571H210.857V56.5714H221.143V66.8571H231.429V56.5714H241.714V66.8571H252V77.1429ZM241.714 66.8571V77.1429H231.429V66.8571H241.714ZM231.429 77.1429V87.4286H221.143V77.1429H231.429Z" fill="white"/>
<path opacity="0.2" d="M257.143 51.4286V102.857H308.571V51.4286H257.143ZM303.429 77.1429H293.143V87.4286H303.429V97.7143H293.143V87.4286H282.857V97.7143H272.571V87.4286H262.286V77.1429H272.571V66.8571H262.286V56.5714H272.571V66.8571H282.857V56.5714H293.143V66.8571H303.429V77.1429ZM293.143 66.8571V77.1429H282.857V66.8571H293.143ZM282.857 77.1429V87.4286H272.571V77.1429H282.857Z" fill="white"/>
<path opacity="0.1" d="M308.571 51.4286V102.857H360V51.4286H308.571ZM354.857 77.1429H344.571V87.4286H354.857V97.7143H344.571V87.4286H334.286V97.7143H324V87.4286H313.714V77.1429H324V66.8571H313.714V56.5714H324V66.8571H334.286V56.5714H344.571V66.8571H354.857V77.1429ZM344.571 66.8571V77.1429H334.286V66.8571H344.571ZM334.286 77.1429V87.4286H324V77.1429H334.286Z" fill="white"/>
<path opacity="0.2" d="M0 102.857V154.286H51.4286V102.857H0ZM46.2857 128.571H36V138.857H46.2857V149.143H36V138.857H25.7143V149.143H15.4286V138.857H5.14286V128.571H15.4286V118.286H5.14286V108H15.4286V118.286H25.7143V108H36V118.286H46.2857V128.571ZM36 118.286V128.571H25.7143V118.286H36ZM25.7143 128.571V138.857H15.4286V128.571H25.7143Z" fill="white"/>
<path opacity="0.1" d="M51.4286 102.857V154.286H102.857V102.857H51.4286ZM97.7143 128.571H87.4286V138.857H97.7143V149.143H87.4286V138.857H77.1429V149.143H66.8572V138.857H56.5714V128.571H66.8572V118.286H56.5714V108H66.8572V118.286H77.1429V108H87.4286V118.286H97.7143V128.571ZM87.4286 118.286V128.571H77.1429V118.286H87.4286ZM77.1429 128.571V138.857H66.8572V128.571H77.1429Z" fill="white"/>
<path opacity="0.2" d="M102.857 102.857V154.286H154.286V102.857H102.857ZM149.143 128.571H138.857V138.857H149.143V149.143H138.857V138.857H128.571V149.143H118.286V138.857H108V128.571H118.286V118.286H108V108H118.286V118.286H128.571V108H138.857V118.286H149.143V128.571ZM138.857 118.286V128.571H128.571V118.286H138.857ZM128.571 128.571V138.857H118.286V128.571H128.571Z" fill="white"/>
<path opacity="0.1" d="M154.286 102.857V154.286H205.714V102.857H154.286ZM200.571 128.571H190.286V138.857H200.571V149.143H190.286V138.857H180V149.143H169.714V138.857H159.429V128.571H169.714V118.286H159.429V108H169.714V118.286H180V108H190.286V118.286H200.571V128.571ZM190.286 118.286V128.571H180V118.286H190.286ZM180 128.571V138.857H169.714V128.571H180Z" fill="white"/>
<path opacity="0.2" d="M205.714 102.857V154.286H257.143V102.857H205.714ZM252 128.571H241.714V138.857H252V149.143H241.714V138.857H231.429V149.143H221.143V138.857H210.857V128.571H221.143V118.286H210.857V108H221.143V118.286H231.429V108H241.714V118.286H252V128.571ZM241.714 118.286V128.571H231.429V118.286H241.714ZM231.429 128.571V138.857H221.143V128.571H231.429Z" fill="white"/>
<path opacity="0.1" d="M257.143 102.857V154.286H308.571V102.857H257.143ZM303.429 128.571H293.143V138.857H303.429V149.143H293.143V138.857H282.857V149.143H272.571V138.857H262.286V128.571H272.571V118.286H262.286V108H272.571V118.286H282.857V108H293.143V118.286H303.429V128.571ZM293.143 118.286V128.571H282.857V118.286H293.143ZM282.857 128.571V138.857H272.571V128.571H282.857Z" fill="white"/>
<path opacity="0.2" d="M308.571 102.857V154.286H360V102.857H308.571ZM354.857 128.571H344.571V138.857H354.857V149.143H344.571V138.857H334.286V149.143H324V138.857H313.714V128.571H324V118.286H313.714V108H324V118.286H334.286V108H344.571V118.286H354.857V128.571ZM344.571 118.286V128.571H334.286V118.286H344.571ZM334.286 128.571V138.857H324V128.571H334.286Z" fill="white"/>
<path opacity="0.1" d="M0 154.286V205.714H51.4286V154.286H0ZM46.2857 180H36V190.286H46.2857V200.571H36V190.286H25.7143V200.571H15.4286V190.286H5.14286V180H15.4286V169.714H5.14286V159.429H15.4286V169.714H25.7143V159.429H36V169.714H46.2857V180ZM36 169.714V180H25.7143V169.714H36ZM25.7143 180V190.286H15.4286V180H25.7143Z" fill="white"/>
<path opacity="0.2" d="M51.4286 154.286V205.714H102.857V154.286H51.4286ZM97.7143 180H87.4286V190.286H97.7143V200.571H87.4286V190.286H77.1429V200.571H66.8572V190.286H56.5714V180H66.8572V169.714H56.5714V159.429H66.8572V169.714H77.1429V159.429H87.4286V169.714H97.7143V180ZM87.4286 169.714V180H77.1429V169.714H87.4286ZM77.1429 180V190.286H66.8572V180H77.1429Z" fill="white"/>
<path opacity="0.1" d="M102.857 154.286V205.714H154.286V154.286H102.857ZM149.143 180H138.857V190.286H149.143V200.571H138.857V190.286H128.571V200.571H118.286V190.286H108V180H118.286V169.714H108V159.429H118.286V169.714H128.571V159.429H138.857V169.714H149.143V180ZM138.857 169.714V180H128.571V169.714H138.857ZM128.571 180V190.286H118.286V180H128.571Z" fill="white"/>
<path opacity="0.2" d="M154.286 154.286V205.714H205.714V154.286H154.286ZM200.571 180H190.286V190.286H200.571V200.571H190.286V190.286H180V200.571H169.714V190.286H159.429V180H169.714V169.714H159.429V159.429H169.714V169.714H180V159.429H190.286V169.714H200.571V180ZM190.286 169.714V180H180V169.714H190.286ZM180 180V190.286H169.714V180H180Z" fill="white"/>
<path opacity="0.1" d="M205.714 154.286V205.714H257.143V154.286H205.714ZM252 180H241.714V190.286H252V200.571H241.714V190.286H231.429V200.571H221.143V190.286H210.857V180H221.143V169.714H210.857V159.429H221.143V169.714H231.429V159.429H241.714V169.714H252V180ZM241.714 169.714V180H231.429V169.714H241.714ZM231.429 180V190.286H221.143V180H231.429Z" fill="white"/>
<path opacity="0.2" d="M257.143 154.286V205.714H308.571V154.286H257.143ZM303.429 180H293.143V190.286H303.429V200.571H293.143V190.286H282.857V200.571H272.571V190.286H262.286V180H272.571V169.714H262.286V159.429H272.571V169.714H282.857V159.429H293.143V169.714H303.429V180ZM293.143 169.714V180H282.857V169.714H293.143ZM282.857 180V190.286H272.571V180H282.857Z" fill="white"/>
<path opacity="0.1" d="M308.571 154.286V205.714H360V154.286H308.571ZM354.857 180H344.571V190.286H354.857V200.571H344.571V190.286H334.286V200.571H324V190.286H313.714V180H324V169.714H313.714V159.429H324V169.714H334.286V159.429H344.571V169.714H354.857V180ZM344.571 169.714V180H334.286V169.714H344.571ZM334.286 180V190.286H324V180H334.286Z" fill="white"/>
<path opacity="0.2" d="M0 205.714V257.143H51.4286V205.714H0ZM46.2857 231.429H36V241.714H46.2857V252H36V241.714H25.7143V252H15.4286V241.714H5.14286V231.429H15.4286V221.143H5.14286V210.857H15.4286V221.143H25.7143V210.857H36V221.143H46.2857V231.429ZM36 221.143V231.429H25.7143V221.143H36ZM25.7143 231.429V241.714H15.4286V231.429H25.7143Z" fill="white"/>
<path opacity="0.1" d="M51.4286 205.714V257.143H102.857V205.714H51.4286ZM97.7143 231.429H87.4286V241.714H97.7143V252H87.4286V241.714H77.1429V252H66.8572V241.714H56.5714V231.429H66.8572V221.143H56.5714V210.857H66.8572V221.143H77.1429V210.857H87.4286V221.143H97.7143V231.429ZM87.4286 221.143V231.429H77.1429V221.143H87.4286ZM77.1429 231.429V241.714H66.8572V231.429H77.1429Z" fill="white"/>
<path opacity="0.2" d="M102.857 205.714V257.143H154.286V205.714H102.857ZM149.143 231.429H138.857V241.714H149.143V252H138.857V241.714H128.571V252H118.286V241.714H108V231.429H118.286V221.143H108V210.857H118.286V221.143H128.571V210.857H138.857V221.143H149.143V231.429ZM138.857 221.143V231.429H128.571V221.143H138.857ZM128.571 231.429V241.714H118.286V231.429H128.571Z" fill="white"/>
<path opacity="0.1" d="M154.286 205.714V257.143H205.714V205.714H154.286ZM200.571 231.429H190.286V241.714H200.571V252H190.286V241.714H180V252H169.714V241.714H159.429V231.429H169.714V221.143H159.429V210.857H169.714V221.143H180V210.857H190.286V221.143H200.571V231.429ZM190.286 221.143V231.429H180V221.143H190.286ZM180 231.429V241.714H169.714V231.429H180Z" fill="white"/>
<path opacity="0.2" d="M205.714 205.714V257.143H257.143V205.714H205.714ZM252 231.429H241.714V241.714H252V252H241.714V241.714H231.429V252H221.143V241.714H210.857V231.429H221.143V221.143H210.857V210.857H221.143V221.143H231.429V210.857H241.714V221.143H252V231.429ZM241.714 221.143V231.429H231.429V221.143H241.714ZM231.429 231.429V241.714H221.143V231.429H231.429Z" fill="white"/>
<path opacity="0.1" d="M257.143 205.714V257.143H308.571V205.714H257.143ZM303.429 231.429H293.143V241.714H303.429V252H293.143V241.714H282.857V252H272.571V241.714H262.286V231.429H272.571V221.143H262.286V210.857H272.571V221.143H282.857V210.857H293.143V221.143H303.429V231.429ZM293.143 221.143V231.429H282.857V221.143H293.143ZM282.857 231.429V241.714H272.571V231.429H282.857Z" fill="white"/>
<path opacity="0.2" d="M308.571 205.714V257.143H360V205.714H308.571ZM354.857 231.429H344.571V241.714H354.857V252H344.571V241.714H334.286V252H324V241.714H313.714V231.429H324V221.143H313.714V210.857H324V221.143H334.286V210.857H344.571V221.143H354.857V231.429ZM344.571 221.143V231.429H334.286V221.143H344.571ZM334.286 231.429V241.714H324V231.429H334.286Z" fill="white"/>
<circle cx="180" cy="129" r="100" fill="white"/>
<path d="M209.94 182C212.592 182 215.136 180.946 217.011 179.071C218.886 177.196 219.94 174.652 219.94 172V92C219.94 89.3478 218.886 86.8043 217.011 84.9289C215.136 83.0536 212.592 82 209.94 82H150C147.348 82 144.804 83.0536 142.929 84.9289C141.054 86.8043 140 89.3478 140 92V172C140 174.652 141.054 177.196 142.929 179.071C144.804 180.946 147.348 182 150 182H209.94ZM165 97H195V107H165V97ZM191.25 128.25C191.238 131.231 190.049 134.086 187.942 136.194C185.835 138.302 182.98 139.492 180 139.505C173.825 139.505 168.75 134.43 168.75 128.25C168.75 122.07 173.825 117 180 117C182.98 117.012 185.835 118.201 187.942 120.308C190.049 122.415 191.238 125.27 191.25 128.25ZM157.5 162.94C157.5 154.62 167.64 146.065 180 146.065C192.36 146.065 202.5 154.62 202.5 162.94V165.755H157.5V162.94Z" fill="#01846C"/>
</svg>
