<svg width="200" height="200" viewBox="0 0 200 200" fill="none" xmlns="http://www.w3.org/2000/svg">
<circle cx="100" cy="100" r="100" fill="white"/>
<path d="M140 100V130C140 131.326 139.473 132.598 138.536 133.536C137.598 134.473 136.326 135 135 135C133.674 135 132.402 134.473 131.464 133.536C130.527 132.598 130 131.326 130 130V60C130 58.6739 129.473 57.4021 128.536 56.4645C127.598 55.5268 126.326 55 125 55H55C53.6739 55 52.4021 55.5268 51.4645 56.4645C50.5268 57.4021 50 58.6739 50 60V130C50 138.27 56.73 145 65 145H135C143.27 145 150 138.27 150 130V100H140ZM110 95V105H70V95H110ZM70 85V75H110V85H70ZM110 115V125H95V115H110Z" fill="#006BB4"/>
</svg>
